<svg xmlns="http://www.w3.org/2000/svg" width="196" height="156.81" viewBox="0 0 196 156.81">
  <path id="icons8-twitter-squared" d="M198,4c-7.644,4.537-22.981,10.721-32,12.5-.265.069-.48.157-.735.225A44.08,44.08,0,0,0,90.2,48.1c0,1.284-.108,3.646,0,4.9C57.341,53,32.331,35.79,14.4,13.8c-1.95,4.9-2.8,12.642-2.8,19.914,0,13.73,10.731,27.215,27.44,35.574a40.168,40.168,0,0,1-10,1.362A26.319,26.319,0,0,1,11.8,64.6v.5c0,19.188,20.364,32.252,38.475,35.888-3.675,2.166-11.084,2.381-14.7,2.381-2.548,0-11.564-1.166-13.975-1.617,5.037,15.729,23.206,24.569,40.523,24.882C48.579,137.259,39.181,141.2,11.447,141.2H2c17.522,11.231,39.837,19.61,62.2,19.61,72.814,0,114.2-55.5,114.2-107.81,0-.843-.02-2.607-.049-4.381,0-.176.049-.343.049-.519,0-.265-.078-.519-.078-.784-.029-1.333-.059-2.577-.088-3.224A80.528,80.528,0,0,0,198,23.6a79.086,79.086,0,0,1-22.736,6.233C183.437,24.932,195.05,13.25,198,4ZM158.8,53c0,39.984-28.979,82.31-82.967,87.641A117.959,117.959,0,0,0,90.2,128.1S60.8,102.009,58.6,67.924A107.791,107.791,0,0,0,90.2,72.6h19.6V48.089a24.5,24.5,0,0,1,49,.02Z" transform="translate(-2 -3.999)" fill="#fff"/>
</svg>
